<svg width="188" height="422" viewBox="0 0 188 422" fill="none" xmlns="http://www.w3.org/2000/svg">
<path d="M48.3392 224.95C48.3392 224.95 53.751 237.978 50.0446 251.957C46.3382 265.935 42.2644 259.489 36.1529 267.918C30.0414 276.348 23.8885 281.58 14.7955 279.159C5.70248 276.737 43.1753 224.951 43.1753 224.951L48.3392 224.95Z" fill="#C14251"/>
<path d="M29.2001 168.42C29.2001 168.42 26.1367 171.676 26.4345 176.18C26.7315 180.684 36.4729 181.085 36.4729 181.085C36.4729 181.085 43.0284 181.583 44.8961 178.509C46.7631 175.436 43.7755 168.419 43.7755 168.419H29.2001V168.42Z" fill="#00292D"/>
<path d="M46.0612 182.352C46.0612 182.352 48.389 183.865 49.1292 186.325C49.8694 188.785 49.5318 190.923 49.5318 190.923L51.0949 210.209L46.1125 210.57C46.1125 210.57 44.0066 197.628 44.0809 192.381C44.1559 187.135 46.0612 182.352 46.0612 182.352Z" fill="#A55D2D"/>
<path d="M50.3753 206.208C50.3753 206.208 51.6376 208.818 52.3043 215.307C52.971 221.796 52.2729 225.491 52.2729 225.491L48.1264 226.766C48.1264 226.766 45.7787 208.402 45.5391 206.82C45.3003 205.237 50.3753 206.208 50.3753 206.208Z" fill="#A55D2D"/>
<path d="M48.3392 224.95C48.3392 224.95 46.6544 226.913 46.1721 228.049C45.6899 229.186 45.4549 232.518 45.4549 232.518C45.4549 232.518 46.3704 232.496 46.7417 231.683C47.1129 230.87 47.0693 229.505 48.1302 229.269C49.1912 229.032 49.8632 231.318 49.9023 232.588C49.9421 233.858 48.911 235.593 48.911 235.593C48.911 235.593 49.6137 236.036 50.4412 234.956C50.4412 234.956 51.4271 234.779 51.8251 234.117C51.8251 234.117 52.4528 233.785 52.6564 233.132C52.6564 233.132 52.9649 232.616 53.2864 231.78C53.6079 230.945 52.2117 225.236 52.2117 225.236L48.3392 224.95Z" fill="#A55D2D"/>
<path d="M33.9124 283.241C33.9124 283.241 34.5148 290.157 34.5745 291.592C34.6342 293.027 32.1924 294.339 31.2784 294.149C30.3637 293.958 28.5349 292.241 28.4699 290.842C28.4048 289.443 29.8102 283.376 29.8102 283.376L33.9124 283.241Z" fill="#040F00"/>
<path d="M21.6947 216.719L33.9055 228.837L48.7074 220.182L44.8969 211.836L44.5555 211.088C43.8666 204.119 45.3209 199.973 46.1132 196.592C46.1224 196.557 46.1254 196.53 46.1316 196.507C46.29 195.83 46.4179 195.183 46.4975 194.551C46.9698 190.743 46.0619 182.352 46.0619 182.352C42.5048 180.966 38.3054 178.83 38.3054 178.83L31.7821 178.553L23.8533 181.323C23.8533 181.323 23.9414 186.469 23.9414 192.008C23.9414 192.578 23.9658 193.156 24.0087 193.739C24.3838 198.825 26.2033 204.203 26.2033 206.171C26.2033 207.563 24.3838 211.445 23.0572 214.089C22.2956 215.609 21.6947 216.719 21.6947 216.719Z" fill="#B76D3B"/>
<path d="M23.8533 181.324C23.8533 181.324 20.62 181.769 18.9023 186.79L11.5851 196.639L15.9935 199.873L24.6402 191.845C25.1562 188.749 23.8533 181.324 23.8533 181.324Z" fill="#B76D3B"/>
<path d="M11.7329 196.46C11.7329 196.46 14.7955 197.12 16.7069 201.166C17.2328 202.278 21.5378 212.134 21.5378 212.134L19.2391 215.514C19.2391 215.514 11.4305 205.742 10.6069 201.819C9.78322 197.897 11.7329 196.46 11.7329 196.46Z" fill="#B76D3B"/>
<path d="M48.7074 220.182C48.7074 220.182 47.5423 218.677 42.6648 220.182C37.788 221.688 33.9047 228.838 33.9047 228.838L35.2014 257.643H42.8385C42.8385 257.643 51.6139 234.958 48.7074 220.182Z" fill="#B76D3B"/>
<path d="M42.8393 257.643C42.8393 257.643 44.668 273.924 39.7912 288.764L35.2022 286.305V257.643C35.2022 257.643 39.1811 254.081 42.8393 257.643Z" fill="#B76D3B"/>
<path d="M35.2014 285.499L33.9124 295.039H41.0098L40.0783 287.859L35.2014 285.499Z" fill="#B76D3B"/>
<path d="M21.6954 216.72C21.6954 216.72 20.238 223.95 23.1123 241.234C25.9867 258.518 29.775 260.243 31.8647 257.134C35.7196 251.399 33.9039 228.838 33.9039 228.838C33.9039 228.838 31.6045 221.01 21.6954 216.72Z" fill="#A55D2D"/>
<path d="M30.5588 250.52C30.5588 250.52 34.2461 261.205 33.9047 271.253C33.5633 281.301 33.9047 285.499 33.9047 285.499H29.9533C29.9533 285.499 25.1485 256.294 26.09 249.973C27.0315 243.651 30.5588 250.52 30.5588 250.52Z" fill="#A55D2D"/>
<path d="M40.7296 292.878C40.7296 292.878 41.0443 294.078 41.3665 295.303C41.8036 296.96 40.9118 298.687 39.276 299.313C38.803 299.494 38.3536 299.617 38.0053 299.617C37.5637 299.617 36.8701 299.452 36.146 299.234C34.4482 298.722 33.4033 297.063 33.7233 295.361L34.2369 292.632C34.2369 292.632 35.0016 294.72 37.6134 294.72C40.226 294.721 40.7296 292.878 40.7296 292.878Z" fill="#040F00"/>
<path d="M33.9047 285.499C33.9047 285.499 34.511 289.633 32.4855 290.078C30.4609 290.523 30.1011 289.633 29.8071 288.552C29.5132 287.47 29.8913 285.12 29.8913 285.12C29.8913 285.12 32.6088 284.693 33.9047 285.499Z" fill="#A55D2D"/>
<path d="M23.0572 214.089C24.5262 215.482 29.8607 216.09 32.04 214.82C34.2162 213.547 36.0457 213.888 39.4414 214.227C42.84 214.565 44.8976 211.837 44.8976 211.837C43.9706 208.014 45.8698 197.876 46.114 196.594C46.1231 196.558 46.1262 196.531 46.1323 196.508C46.1384 196.478 46.1415 196.46 46.1415 196.46C41.9567 187.515 23.9406 191.334 23.9406 191.334C23.9406 191.334 24.1756 192.308 24.0079 193.739C24.383 198.825 26.2025 204.204 26.2025 206.171C26.2033 207.563 24.383 211.445 23.0572 214.089Z" fill="#F2B7A5"/>
<path d="M43.8643 168.741C43.8643 168.741 44.8992 169.339 44.508 171.275C44.1168 173.211 42.106 173.452 42.106 173.452C42.106 173.452 42.6663 169.443 43.8643 168.741Z" fill="#A55D2D"/>
<path d="M29.1106 168.741C29.1106 168.741 28.0756 169.339 28.4668 171.275C28.858 173.211 30.8688 173.452 30.8688 173.452C30.8688 173.452 30.3085 169.443 29.1106 168.741Z" fill="#A55D2D"/>
<path d="M42.4343 219.513C42.4343 219.513 40.2841 242.133 31.1169 249.717C25.212 254.603 25.5243 262.959 24.4726 268.414C23.4208 273.869 18.3282 272.216 17.6492 278.332C16.9702 284.448 11.0286 288.068 6.7841 287.167C2.54033 286.266 -3.21065 290.014 2.20046 282.281C12.7257 267.239 14.6753 251.885 16.1205 240.536C17.4218 230.316 23.0572 226.766 23.0572 226.766C23.0572 226.766 40.0223 219.183 42.4343 219.513Z" fill="#A02D41"/>
<path d="M35.9707 177.439L38.6851 176.507L38.9254 178.825C39.0096 179.635 38.6422 180.427 37.9625 180.903L37.3333 181.342C36.5188 181.912 35.4219 181.912 34.6067 181.342L34.0325 180.941C33.3237 180.446 32.9571 179.608 33.0818 178.767L33.4363 176.377L35.9707 177.439Z" fill="#A55D2D"/>
<path d="M43.1883 168.975C43.1883 168.975 43.1554 176.607 36.1161 178.51C36.1161 178.51 30.0804 177.403 29.7612 168.848C29.6762 166.579 30.2335 162.454 36.4736 162.454C43.5305 162.454 43.1883 168.975 43.1883 168.975Z" fill="#B76D3B"/>
<path d="M43.6224 162.627C45.3102 165.966 43.1914 169.824 43.1914 169.824C43.1914 169.824 41.2356 167.801 41.613 165.254L36.4729 164.214V158.638C36.4729 158.638 41.3007 158.033 43.6224 162.627Z" fill="#00292D"/>
<path d="M29.3624 162.454C27.6745 165.793 29.7535 169.824 29.7535 169.824C29.7535 169.824 31.7093 167.801 31.3319 165.254L36.4721 164.214V158.638C36.4721 158.638 31.6848 157.86 29.3624 162.454Z" fill="#00292D"/>
<path d="M44.8976 211.837C44.8976 211.837 48.2634 216.984 48.7066 220.182C49.1498 223.381 51.0941 225.153 51.0941 225.153C51.0941 225.153 46.7822 228.367 44.8976 226.767C43.013 225.165 42.6647 227.115 39.7031 228.388C36.7423 229.66 35.9585 228.897 32.7358 228.388C29.5132 227.879 29.1932 231.286 25.594 232.289C21.9948 233.29 21.5087 231.949 19.3707 232.713C17.2328 233.476 14.7947 232.713 14.7947 232.713C14.7947 232.713 17.7556 228.887 18.3657 224.949C18.9757 221.01 21.3173 214.028 24.1526 211.838C24.1526 211.838 33.1094 216.062 44.8976 211.837Z" fill="#DB535E"/>
<path d="M19.1074 215.484C19.1074 215.484 19.7634 216.791 20.7654 217.07C21.7674 217.349 22.9218 216.745 23.6092 216.442C24.2965 216.14 24.9464 217.143 25.5159 217.141C26.0862 217.139 26.3717 216.895 26.3717 216.895C26.3717 216.895 25.4172 215.71 24.8683 215.484C24.3195 215.258 23.9383 215.234 23.9383 215.234C23.9383 215.234 24.5109 215.002 25.1072 215.095C25.7035 215.188 26.2049 215.865 26.6106 216.107C27.0163 216.349 27.732 216.107 27.732 216.107L27.3324 215.484C27.3324 215.484 27.8338 216.018 28.5135 215.862C28.5135 215.862 28.3344 215.095 27.5651 214.102C26.7958 213.109 26.0977 213.144 26.0977 213.144C26.0977 213.144 27.2788 212.969 27.9226 213.788C28.5671 214.607 29.1932 214.92 29.837 214.712C29.837 214.712 29.0853 212.604 27.0461 211.837C25.0061 211.07 21.2875 211.941 21.2875 211.941C21.2875 211.941 19.0952 214.618 19.1074 215.484Z" fill="#B76D3B"/>
<path d="M35.4739 191.181C35.4739 191.181 34.2859 186.636 31.6121 185.851C28.9383 185.066 29.2782 185.438 28.7684 183.578C28.2594 181.719 27.6233 181.426 25.8826 181.325C24.1419 181.223 24.6096 180.107 23.6757 179.24C22.7419 178.372 21.511 178.661 20.238 179.074C18.965 179.488 18.0312 178.495 17.9041 179.074C17.777 179.654 17.862 180.376 18.9229 181.771C19.9839 183.166 18.541 183.124 18.8808 183.993C19.2207 184.86 19.7075 184.93 19.7075 184.93C19.7075 184.93 21.5921 183.414 23.0588 185.976C24.5254 188.538 22.8108 192.33 24.305 196.302C25.7976 200.272 35.4739 191.181 35.4739 191.181Z" fill="#F2B7A5"/>
<path d="M158.957 169.305C158.957 169.305 157.938 171.307 161.013 173.704C164.088 176.099 167.314 176.259 168.462 180.305C169.61 184.351 167.15 186.374 168.735 188.29C170.321 190.206 170.759 196.169 163.049 197.66C155.34 199.15 154.082 193.081 149.872 190.259C145.662 187.438 142.074 183.445 141.981 177.748C141.889 172.052 146 166.799 146 166.799L158.957 169.305Z" fill="#AD5900"/>
<path d="M162.494 179.471C162.494 179.471 164.848 181.001 165.596 183.489C166.345 185.978 166.003 188.14 166.003 188.14L167.584 207.645L162.545 208.01C162.545 208.01 160.415 194.92 160.491 189.614C160.567 184.309 162.494 179.471 162.494 179.471Z" fill="#FFA181"/>
<path d="M166.858 203.599C166.858 203.599 168.134 206.238 168.809 212.801C169.483 219.364 168.777 223.1 168.777 223.1L164.584 224.39C164.584 224.39 162.21 205.817 161.967 204.217C161.724 202.617 166.858 203.599 166.858 203.599Z" fill="#FFA181"/>
<path d="M164.798 222.554C164.798 222.554 163.094 224.538 162.606 225.688C162.119 226.838 161.881 230.208 161.881 230.208C161.881 230.208 162.806 230.186 163.182 229.363C163.558 228.54 163.513 227.16 164.587 226.921C165.66 226.682 166.339 228.993 166.379 230.278C166.419 231.563 165.377 233.317 165.377 233.317C165.377 233.317 166.088 233.766 166.925 232.673C166.925 232.673 167.922 232.495 168.325 231.824C168.325 231.824 168.96 231.489 169.166 230.827C169.166 230.827 169.478 230.305 169.802 229.46C170.127 228.615 168.715 222.842 168.715 222.842L164.798 222.554Z" fill="#FFA181"/>
<path d="M150.206 281.509C150.206 281.509 150.816 288.503 150.875 289.955C150.936 291.406 148.467 292.734 147.542 292.541C146.617 292.348 144.767 290.611 144.701 289.196C144.635 287.78 146.057 281.645 146.057 281.645L150.206 281.509Z" fill="#040F00"/>
<path d="M137.849 214.229L150.203 226.483L165.168 217.732L161.318 209.288L160.974 208.535C160.277 201.485 161.747 197.296 162.55 193.875C162.558 193.838 162.558 193.808 162.566 193.785C162.726 193.1 162.857 192.451 162.933 191.81C163.415 187.957 162.497 179.475 162.497 179.475C161.364 179.028 160.162 178.514 159.052 178.007H159.045C156.641 176.919 154.651 175.913 154.651 175.913L149.346 175.682L145.465 176.829H145.457L140.03 178.432C140.03 178.432 140.122 183.634 140.122 189.239C140.122 189.813 140.145 190.402 140.191 190.983C140.566 196.133 142.411 201.574 142.411 203.564C142.411 204.66 141.301 207.261 140.176 209.616C139.854 210.302 139.525 210.972 139.226 211.569C138.453 213.104 137.849 214.229 137.849 214.229Z" fill="#FFA181"/>
<path d="M140.033 178.431C140.033 178.431 136.861 178.774 135.628 184.006C134.395 189.238 130.519 204.353 130.519 204.353L135.276 205.962C135.276 205.962 139.78 195.327 140.303 192.196C140.826 189.065 140.033 178.431 140.033 178.431Z" fill="#DF8770"/>
<path d="M136.499 200.73C136.499 200.73 136.451 203.817 135.835 208.877C135.219 213.937 131.983 220.803 131.983 220.803L128.172 221.056C128.172 221.056 129.493 204.801 131.519 201.265C133.544 197.728 136.499 200.73 136.499 200.73Z" fill="#DF8770"/>
<path d="M165.17 217.732C165.17 217.732 163.992 216.209 159.059 217.732C154.126 219.254 150.2 226.486 150.2 226.486L151.511 255.618H159.235C159.235 255.618 168.11 232.676 165.17 217.732Z" fill="#FFAE8D"/>
<path d="M159.235 255.619C159.235 255.619 161.085 272.086 156.153 287.095L151.511 284.608V255.619C151.511 255.619 155.536 252.017 159.235 255.619Z" fill="#FFAE8D"/>
<path d="M151.511 283.793L150.206 293.441H157.385L156.443 286.18L151.511 283.793Z" fill="#FFAE8D"/>
<path d="M137.851 214.23C137.851 214.23 136.377 221.543 139.284 239.023C142.19 256.504 146.022 258.249 148.137 255.104C152.036 249.304 150.2 226.486 150.2 226.486C150.2 226.486 147.873 218.569 137.851 214.23Z" fill="#DB927A"/>
<path d="M146.815 248.415C146.815 248.415 150.545 259.221 150.2 269.384C149.854 279.548 150.2 283.793 150.2 283.793H146.203C146.203 283.793 141.343 254.256 142.295 247.862C143.248 241.468 146.815 248.415 146.815 248.415Z" fill="#DB927A"/>
<path d="M157.102 291.256C157.102 291.256 157.419 292.47 157.746 293.709C158.188 295.386 157.286 297.131 155.632 297.765C155.154 297.947 154.699 298.072 154.347 298.072C153.9 298.072 153.199 297.905 152.466 297.685C150.748 297.168 149.692 295.49 150.016 293.768L150.536 291.008C150.536 291.008 151.309 293.12 153.951 293.12C156.593 293.119 157.102 291.256 157.102 291.256Z" fill="#040F00"/>
<path d="M150.2 283.793C150.2 283.793 150.813 287.974 148.764 288.424C146.717 288.874 146.353 287.974 146.056 286.881C145.759 285.787 146.141 283.41 146.141 283.41C146.141 283.41 148.888 282.978 150.2 283.793Z" fill="#DB927A"/>
<path d="M160.272 165.705C160.272 165.705 161.319 166.311 160.924 168.268C160.528 170.226 158.494 170.47 158.494 170.47C158.494 170.47 159.061 166.414 160.272 165.705Z" fill="#DF8770"/>
<path d="M145.35 165.705C145.35 165.705 144.303 166.311 144.699 168.268C145.095 170.226 147.129 170.47 147.129 170.47C147.129 170.47 146.562 166.414 145.35 165.705Z" fill="#DF8770"/>
<path opacity="0.66" d="M165.53 222.608C165.53 222.608 167.588 238.652 164.143 247.436C160.699 256.221 157.441 254.823 155.543 258.716C153.646 262.609 149.477 262.449 147.788 261.97C146.1 261.491 144.132 264.547 141.507 264.123C138.883 263.7 135.11 261.97 135.11 261.97C135.11 261.97 138.784 258.776 137.849 249.513C136.915 240.249 133.952 227.805 136.5 222.608C139.047 217.411 165.53 222.608 165.53 222.608Z" fill="#EEBBB0"/>
<path d="M152.289 174.502L155.033 173.559L155.277 175.903C155.362 176.723 154.991 177.524 154.303 178.005L153.667 178.449C152.843 179.025 151.734 179.025 150.91 178.449L150.33 178.044C149.613 177.543 149.242 176.695 149.368 175.845L149.726 173.428L152.289 174.502Z" fill="#DF8770"/>
<path d="M159.589 165.941C159.589 165.941 159.556 173.66 152.436 175.586C152.436 175.586 146.332 174.465 146.009 165.813C145.923 163.518 146.486 159.346 152.798 159.346C159.935 159.346 159.589 165.941 159.589 165.941Z" fill="#FFA181"/>
<path d="M159.96 159.516C161.667 162.894 159.591 166.8 159.591 166.8C159.591 166.8 157.612 164.754 157.995 162.178L152.796 160.287V155.486C152.796 155.486 157.612 154.87 159.96 159.516Z" fill="#AD5900"/>
<path d="M145.484 159.516C143.777 162.894 146 166.8 146 166.8C146 166.8 147.979 164.754 147.596 162.178L152.795 160.287V155.486C152.795 155.486 147.833 154.87 145.484 159.516Z" fill="#AD5900"/>
<path d="M161.317 209.292C161.317 209.292 164.722 214.498 165.17 217.732C165.618 220.967 167.584 222.76 167.584 222.76C167.584 222.76 163.223 226.011 161.317 224.391C159.41 222.772 159.058 224.744 156.063 226.031C153.069 227.317 152.276 226.545 149.016 226.031C145.757 225.517 145.434 228.963 141.793 229.976C138.153 230.989 137.661 229.633 135.499 230.404C133.338 231.177 130.871 230.404 130.871 230.404C130.871 230.404 133.866 226.535 134.483 222.552C135.099 218.569 137.468 211.508 140.336 209.292C140.336 209.292 149.394 213.565 161.317 209.292Z" fill="#FFE3D9"/>
<path d="M131.687 219.812C131.687 219.812 132.568 220.712 133.184 222.428C133.801 224.143 133.184 227.317 133.184 227.317C133.184 227.317 132.303 226.888 132.259 226.159C132.216 225.43 132.48 223.672 131.863 223.565C131.246 223.457 130.762 225.43 130.542 226.845C130.321 228.26 130.982 230.49 130.982 230.49C130.982 230.49 129.881 230.147 129.616 229.16C129.616 229.16 128.911 229.16 128.559 228.517C128.207 227.874 127.414 227.188 127.282 226.802C127.15 226.416 126.754 226.33 126.754 225.645C126.754 224.958 127.943 220.885 128.736 219.813C129.529 218.74 131.687 219.812 131.687 219.812Z" fill="#DF8770"/>
<path d="M160.974 208.535C160.277 201.485 161.747 197.296 162.55 193.875C162.558 193.838 162.558 193.808 162.566 193.785C162.726 193.1 162.857 192.451 162.933 191.81C163.415 187.957 162.497 179.475 162.497 179.475C161.364 179.028 160.162 178.514 159.052 178.007H159.045C159.045 178.007 153.058 186.601 150.631 193.741C148.197 200.881 151.278 212.433 151.278 212.433L161.318 209.288L160.974 208.535Z" fill="#FFE3D9"/>
<path d="M140.191 190.983C140.566 196.133 142.411 201.574 142.411 203.564C142.411 204.66 141.301 207.261 140.176 209.616C142.817 210.391 150.911 212.433 150.911 212.433C156.384 195.85 144.609 177.082 144.609 177.082L140.03 178.432C140.03 178.432 140.122 183.634 140.122 189.239C140.122 189.813 140.145 190.402 140.191 190.983Z" fill="#FFE3D9"/>
<path d="M155.289 174.928C155.289 174.928 155.716 174.669 156.515 174.649C157.315 174.629 156.705 175.538 157.092 175.682C157.479 175.826 157.602 175.926 157.602 176.445C157.602 176.964 156.803 177.081 156.803 177.081C156.803 177.081 155.778 178.681 154.075 179.279C152.373 179.879 150.312 179.718 149.344 178.181C148.375 176.644 148.157 176.505 147.685 176.364C147.213 176.224 147.145 175.286 147.637 174.807C148.129 174.328 148.559 174.927 148.806 174.468C149.051 174.009 149.591 174.336 149.591 174.336C149.591 174.336 149.334 176.224 151.171 176.914C153.01 177.603 155.396 176.405 155.289 174.928Z" fill="#FFE3D9"/>
<path opacity="0.53" d="M140.03 178.432C140.03 178.432 137.898 178.105 135.711 182.346C133.524 186.586 132.819 193.015 130.519 193.74C128.22 194.465 128.548 194.04 128.548 194.04C128.548 194.04 128.275 196.062 129.86 195.903C131.446 195.743 131.726 196.249 132.27 197.487C132.813 198.725 133.633 199.363 134.891 198.938C136.149 198.512 136.674 198.137 137.477 199.07C138.28 200.003 140.03 199.31 140.03 199.31L140.348 192.557C140.348 192.557 139.757 179.381 140.03 178.432Z" fill="#EEBBB0"/>
<path opacity="0.53" d="M162.497 179.475C162.497 179.475 164.799 180.198 166.056 183.446C167.314 186.693 166.603 190.631 167.97 194.757C169.337 198.884 172.672 201.706 172.672 201.706C172.672 201.706 171.797 202.717 170.54 202.824C169.282 202.93 168.79 202.611 168.189 202.824C167.587 203.037 166.33 204.101 164.854 204.048C163.378 203.996 163.167 203.357 162.497 203.301C161.826 203.245 160.553 203.729 160.489 203.676C160.425 203.623 160.553 203.729 160.553 203.729C160.553 203.729 163.206 189.307 163.073 186.589C162.94 183.872 162.497 179.475 162.497 179.475Z" fill="#EEBBB0"/>
<path opacity="0.39" d="M176.409 395.76C176.69 394.767 176.835 393.759 176.835 392.738C176.835 391.551 176.635 390.381 176.256 389.232L112.11 0H69.4929L15.982 389.676C15.6934 390.682 15.5434 391.704 15.5434 392.738C15.5434 393.572 15.6452 394.398 15.8335 395.215C16.2292 397.304 17.1746 399.187 18.5165 400.634C28.0129 412.959 59.1897 422 96.1887 422C133.42 422 164.753 412.845 174.035 400.402C175.156 399.116 175.987 397.525 176.409 395.76Z" fill="url(#paint0_linear_1_593)"/>
<path d="M93.469 411.401C116.616 411.401 135.381 404.295 135.381 395.529C135.381 386.763 116.616 379.656 93.469 379.656C70.3218 379.656 51.5572 386.763 51.5572 395.529C51.5572 404.295 70.3218 411.401 93.469 411.401Z" fill="#F4CC8C"/>
<path d="M106.708 140.129C102.006 131.322 94.2414 131.688 94.2414 131.688L91.1512 131.686H91.0807H91.0103L87.9201 131.688C87.9201 131.688 80.1559 131.322 75.4537 140.129C70.7514 148.937 66.6553 166.029 66.6553 166.029C66.6553 166.029 72.3918 168.315 75.345 168.635L76.4388 166.029V168.635C76.4388 168.635 83.7299 171.813 91.0815 171.142C98.4331 171.813 105.724 168.635 105.724 168.635V166.029L106.817 168.635C109.77 168.315 115.507 166.029 115.507 166.029C115.507 166.029 111.409 148.937 106.708 140.129Z" fill="#002428"/>
<path d="M67.3994 286.926C67.3994 286.926 68.5307 323.195 85.5333 340.749C102.536 358.304 114.365 346.488 123.012 361.004C131.66 375.52 143.448 377.883 152.809 374.169C162.17 370.456 164.859 361.971 174.262 367.733C183.665 373.494 169.45 354.59 156.969 348.513C144.488 342.437 147.491 326.57 139.402 319.482C131.313 312.392 124.728 312.73 121.086 308.004C117.444 303.278 112.253 289.834 106.874 288.96C101.496 288.087 67.3994 286.926 67.3994 286.926Z" fill="#A02D41"/>
<path d="M71.8521 177.043C71.8521 177.043 67.2195 180.054 65.7459 184.952C64.2724 189.849 64.9445 194.105 64.9445 194.105L61.8336 232.493L71.7503 233.21C71.7503 233.21 75.942 207.449 75.7935 197.007C75.6458 186.565 71.8521 177.043 71.8521 177.043Z" fill="#DB927A"/>
<path d="M63.2651 224.53C63.2651 224.53 60.7521 229.725 59.4255 242.64C58.0982 255.556 59.4875 262.91 59.4875 262.91L67.7408 265.449C67.7408 265.449 72.414 228.895 72.8909 225.746C73.367 222.596 63.2651 224.53 63.2651 224.53Z" fill="#DB927A"/>
<path d="M67.3183 261.834C67.3183 261.834 70.671 265.74 71.6317 268.003C72.5923 270.265 73.0593 276.898 73.0593 276.898C73.0593 276.898 71.2375 276.855 70.498 275.236C69.7586 273.616 69.8458 270.9 67.7339 270.429C65.622 269.958 64.2847 274.508 64.2058 277.037C64.127 279.565 66.1785 283.017 66.1785 283.017C66.1785 283.017 64.7792 283.9 63.1334 281.749C63.1334 281.749 61.1708 281.398 60.3785 280.079C60.3785 280.079 59.1285 279.419 58.7235 278.117C58.7235 278.117 58.1096 277.09 57.4697 275.427C56.8305 273.765 59.6092 262.402 59.6092 262.402L67.3183 261.834Z" fill="#DB927A"/>
<path d="M96.0356 377.862C96.0356 377.862 94.8361 391.627 94.7182 394.483C94.5996 397.339 99.4595 399.952 101.28 399.572C103.1 399.193 106.741 395.775 106.871 392.989C107.001 390.204 104.203 378.129 104.203 378.129L96.0356 377.862Z" fill="#040F00"/>
<path d="M120.353 245.451L96.0471 269.571L66.5842 252.345L74.1684 235.733L74.8482 234.244C76.2191 220.373 73.3249 212.12 71.748 205.392C71.7296 205.321 71.7235 205.268 71.7113 205.22C71.3959 203.873 71.141 202.585 70.9833 201.327C70.0426 193.747 71.8506 177.046 71.8506 177.046C78.9312 174.287 87.2909 170.035 87.2909 170.035L97.6852 169.908L116.058 174.996C116.058 174.996 115.882 185.24 115.882 196.264C115.882 197.398 115.834 198.549 115.749 199.708C115.002 209.834 111.38 220.538 111.38 224.455C111.38 227.226 115.002 234.953 117.642 240.216C119.158 243.242 120.353 245.451 120.353 245.451Z" fill="#FFAE8D"/>
<path d="M116.058 174.997C116.058 174.997 122.299 175.672 124.725 185.968C127.153 196.264 134.78 226.011 134.78 226.011L125.419 229.178C125.419 229.178 116.554 208.248 115.526 202.088C114.497 195.927 116.058 174.997 116.058 174.997Z" fill="#FFAE8D"/>
<path d="M123.012 218.882C123.012 218.882 121.799 220.531 123.012 230.49C124.226 240.449 132.793 257.643 132.793 257.643L139.403 258.886C139.403 258.886 136.802 226.896 132.815 219.936C128.828 212.975 123.012 218.882 123.012 218.882Z" fill="#FFAE8D"/>
<path d="M66.5864 252.344C66.5864 252.344 68.9058 249.347 78.6135 252.344C88.3212 255.341 96.0494 269.574 96.0494 269.574L93.469 326.908H78.2667C78.2667 326.908 60.7995 281.755 66.5864 252.344Z" fill="#FFAE8D"/>
<path d="M78.2668 326.908C78.2668 326.908 73.579 336.889 83.5845 381.376L93.469 383.959V326.908C93.469 326.908 85.5471 319.819 78.2668 326.908Z" fill="#FFAE8D"/>
<path d="M93.469 382.356L96.0356 401.344H81.9073L83.5845 381.376L93.469 382.356Z" fill="#FFAE8D"/>
<path d="M120.352 245.452C120.352 245.452 123.252 259.844 117.532 294.247C111.811 328.65 104.27 332.083 100.109 325.895C92.4356 314.481 96.0494 269.574 96.0494 269.574C96.0494 269.574 100.629 253.991 120.352 245.452Z" fill="#DB927A"/>
<path d="M102.71 312.73C102.71 312.73 95.3704 333.997 96.0494 353.999C96.7283 374 96.0494 382.356 96.0494 382.356H103.915C103.915 382.356 113.479 324.225 111.605 311.642C109.731 299.058 102.71 312.73 102.71 312.73Z" fill="#DB927A"/>
<path d="M82.4653 397.045C82.4653 397.045 81.8399 399.433 81.197 401.872C80.3274 405.172 82.1017 408.608 85.3588 409.854C86.3003 410.214 87.1959 410.46 87.8879 410.46C88.7675 410.46 90.1476 410.132 91.589 409.698C94.9693 408.679 97.0483 405.377 96.4107 401.989L95.388 396.557C95.388 396.557 93.8662 400.713 88.6664 400.713C83.4673 400.712 82.4653 397.045 82.4653 397.045Z" fill="#040F00"/>
<path d="M96.0494 382.356C96.0494 382.356 94.843 390.584 98.874 391.47C102.904 392.357 103.619 390.584 104.205 388.432C104.79 386.281 104.038 381.601 104.038 381.601C104.038 381.601 98.6306 380.752 96.0494 382.356Z" fill="#DB927A"/>
<path d="M117.638 240.219C114.714 242.984 104.097 244.199 99.7642 241.672C95.4317 239.138 91.788 239.816 85.0289 240.487C78.2622 241.165 74.1669 235.732 74.1669 235.732C75.7208 229.337 73.2943 214.073 72.1996 207.842C71.9853 206.657 71.8246 205.8 71.748 205.39C71.7327 205.323 71.725 205.271 71.7097 205.219C71.7021 205.159 71.6944 205.122 71.6944 205.122C72.5058 203.385 73.5775 201.895 74.8405 200.613C82.8779 192.474 98.8916 192.906 108.146 193.979C112.372 194.464 115.188 195.082 115.188 195.082C115.188 195.082 115.418 196.864 115.747 199.711C115.732 199.875 115.724 200.031 115.709 200.195C114.89 210.168 111.376 220.595 111.376 224.455C111.376 227.228 115.005 234.949 117.638 240.219Z" fill="#DB535E"/>
<path d="M115.747 199.711C115.732 199.875 115.724 200.031 115.709 200.195C113.795 200.396 110.909 200.762 109.065 201.298C106.11 202.148 103.27 211.412 97.7357 211.412C92.2014 211.412 85.8786 207.686 80.084 208.64C76.3332 209.258 73.6387 208.476 72.1996 207.842C71.9853 206.657 71.8246 205.8 71.748 205.39C71.7327 205.323 71.725 205.271 71.7097 205.219C71.7021 205.159 71.6944 205.122 71.6944 205.122C72.5058 203.385 73.5775 201.894 74.8405 200.613L108.146 193.979C112.372 194.464 115.188 195.082 115.188 195.082C115.188 195.082 115.418 196.864 115.747 199.711Z" fill="#C14251"/>
<path d="M70.7154 195.126L113.223 173.949C113.223 173.949 122.732 176.318 129.493 173.949C129.493 173.949 133.394 178.035 131.833 181.707C130.273 185.378 122.732 183.099 121.822 187.53C120.912 191.961 120.912 196.265 113.371 195.885C105.831 195.506 102.938 196.644 101.459 201.202C99.9801 205.76 95.819 208.418 90.3589 206.646C84.898 204.874 82.9476 201.582 79.4379 203.861C75.9275 206.139 71.6921 205.128 71.6921 205.128C71.6921 205.128 69.535 199.05 70.7154 195.126Z" fill="#FFE3D9"/>
<path d="M76.226 149.951C76.226 149.951 74.1654 151.143 74.9439 154.996C75.7223 158.849 79.725 159.329 79.725 159.329C79.725 159.329 78.6105 151.349 76.226 149.951Z" fill="#E3947A"/>
<path d="M105.593 149.951C105.593 149.951 107.654 151.143 106.875 154.996C106.097 158.849 102.094 159.329 102.094 159.329C102.094 159.329 103.208 151.349 105.593 149.951Z" fill="#E3947A"/>
<path d="M91.9373 167.266L86.5346 165.41L86.0562 170.024C85.8885 171.637 86.6195 173.215 87.9721 174.16L89.2237 175.035C90.8457 176.168 93.0288 176.168 94.6509 175.035L95.7937 174.237C97.2045 173.25 97.934 171.582 97.686 169.908L96.9809 165.151L91.9373 167.266Z" fill="#E3947A"/>
<path d="M77.5709 150.417C77.5709 150.417 77.636 165.608 91.6479 169.398C91.6479 169.398 103.663 167.193 104.298 150.164C104.467 145.648 103.357 137.437 90.9376 137.437C76.8897 137.437 77.5709 150.417 77.5709 150.417Z" fill="#FFAE8D"/>
<path d="M91.0807 135.505C93.9022 135.505 96.1895 133.278 96.1895 130.53C96.1895 127.783 93.9022 125.556 91.0807 125.556C88.2593 125.556 85.972 127.783 85.972 130.53C85.972 133.278 88.2593 135.505 91.0807 135.505Z" fill="#002428"/>
<path d="M188 368.6C177.597 374.003 172.4 366.408 166.85 359.656C161.3 352.903 158.185 362.354 147.782 357.8C137.379 353.239 141.544 341.254 137.8 329.947C134.065 318.641 128.018 326.4 121.955 322.859C115.885 319.312 119.177 303.951 114.323 306.321C109.47 308.684 103.232 305.643 99.2437 299.561C95.2556 293.486 92.7295 289.193 85.5341 289.618C76.3255 290.155 70.5156 278.312 67.5685 269.92C66.3974 266.581 65.6778 263.786 65.3869 262.533C65.2721 262.079 65.2185 261.833 65.2185 261.833C71.3959 259.47 84.4625 262.094 96.8095 265.627C111.399 269.808 124.979 275.256 124.979 275.256C124.979 275.256 125.055 277.037 125.362 279.624C126.073 285.519 128.025 295.618 133.169 298.555C140.579 302.773 149.168 312.902 152.459 320.832C155.758 328.762 156.623 344.123 163.903 344.339C171.183 344.548 173.609 348.178 177.253 358.806C180.889 369.442 188 368.6 188 368.6Z" fill="#FFE3D9"/>
<path d="M125.362 279.624C125.239 279.676 125.117 279.713 124.979 279.75C117.577 281.83 108.682 277 105.054 275.256C101.425 273.519 99.3279 274.123 94.6662 274.123C90.0045 274.123 81.4542 268.533 76.693 270.553C73.7076 271.828 69.9492 270.836 67.5686 269.92C66.3974 266.581 65.6778 263.786 65.387 262.533C66.5352 261.617 68.2039 261.833 68.2039 261.833L96.8095 265.627C111.399 269.808 124.979 275.256 124.979 275.256C124.979 275.256 125.055 277.037 125.362 279.624Z" fill="#EACBC1"/>
<path d="M74.6438 228.37C74.6438 228.37 66.5841 239.466 66.5864 252.344C66.5872 258.767 61.8344 262.238 61.8344 262.238C61.8344 262.238 70.4176 268.636 74.1684 265.449C77.92 262.261 78.6135 266.144 84.5076 268.676C90.4018 271.208 91.9618 269.689 98.3757 268.676C104.79 267.663 105.426 274.446 112.59 276.44C119.754 278.435 120.722 275.765 124.977 277.284C129.233 278.803 134.086 277.284 134.086 277.284C134.086 277.284 128.192 269.67 126.979 261.831C125.766 253.991 121.104 240.094 115.46 235.733C115.46 235.733 98.1085 236.781 74.6438 228.37Z" fill="#F2B7A5"/>
<path d="M132.483 256.438C132.483 256.438 130.749 258.211 129.536 261.586C128.322 264.962 129.536 271.208 129.536 271.208C129.536 271.208 131.269 270.364 131.356 268.929C131.442 267.494 130.923 264.035 132.136 263.823C133.349 263.611 134.303 267.494 134.736 270.279C135.17 273.064 133.87 277.453 133.87 277.453C133.87 277.453 136.037 276.777 136.557 274.836C136.557 274.836 137.944 274.836 138.637 273.57C139.331 272.305 140.891 270.954 141.151 270.195C141.411 269.435 142.191 269.266 142.191 267.916C142.191 266.566 139.851 258.548 138.29 256.438C136.73 254.328 132.483 256.438 132.483 256.438Z" fill="#FFAE8D"/>
<path d="M103.247 138.528C100.851 134.674 91.8569 135.4 91.0103 135.477C90.1629 135.4 81.1694 134.674 78.7735 138.528C78.7735 138.528 75.5072 145.385 77.6322 151.46C77.6322 151.46 81.2337 149.868 83.5301 149.602L83.8585 145.502L84.7878 149.495C84.7878 149.495 87.4088 148.978 90.9399 149.015C90.9636 149.015 90.9866 149.016 91.0103 149.016C91.034 149.016 91.057 149.016 91.0807 149.016C94.6118 148.978 97.2328 149.495 97.2328 149.495L98.1621 145.502L98.4905 149.602C100.787 149.868 104.388 151.46 104.388 151.46C106.513 145.385 103.247 138.528 103.247 138.528Z" fill="#002428"/>
<path d="M94.8805 161.767C94.8805 161.767 93.6787 163.391 92.6147 163.682C92.01 163.846 91.612 163.824 91.367 163.779C91.1221 163.824 90.7164 163.846 90.1193 163.682C89.0553 163.391 87.8459 161.767 87.8459 161.767C87.8459 161.767 89.4074 160.701 90.1423 160.515C90.6092 160.403 91.0761 160.604 91.367 160.775C91.6579 160.604 92.1248 160.403 92.5841 160.515C93.319 160.701 94.8805 161.767 94.8805 161.767Z" fill="#DB535E"/>
<path d="M82.1898 192.511C82.1898 192.511 85.7163 201.535 89.1609 204.09" stroke="#EACBC1" stroke-miterlimit="10" stroke-linecap="round" stroke-linejoin="round"/>
<path d="M89.8996 190.574L95.7225 196.46" stroke="#EACBC1" stroke-miterlimit="10" stroke-linecap="round" stroke-linejoin="round"/>
<path d="M97.7327 186.522C97.7327 186.522 100.807 190.355 108.353 192.511" stroke="#EACBC1" stroke-miterlimit="10" stroke-linecap="round" stroke-linejoin="round"/>
<path d="M106.138 181.89C106.138 181.89 114.668 185.523 116.882 190.574" stroke="#EACBC1" stroke-miterlimit="10" stroke-linecap="round" stroke-linejoin="round"/>
<path d="M111.961 178.057C111.961 178.057 119.261 182.849 124.592 181.89" stroke="#EACBC1" stroke-miterlimit="10" stroke-linecap="round" stroke-linejoin="round"/>
<path d="M75.5677 203.018C75.5677 203.018 75.6588 200.065 75.7943 197.007" stroke="#EACBC1" stroke-miterlimit="10" stroke-linecap="round" stroke-linejoin="round"/>
<path d="M110.157 223.942L106.138 225.571" stroke="#EFC2B4" stroke-width="0.5" stroke-miterlimit="10" stroke-linecap="round"/>
<path d="M75.7981 223.942L80.0848 225.997" stroke="#EFC2B4" stroke-width="0.5" stroke-miterlimit="10" stroke-linecap="round"/>
<path d="M75.7981 230.747C75.7981 230.747 82.4883 235.102 96.0494 237.204C109.61 239.306 115.175 237.714 115.175 237.714" stroke="#FFE3D9" stroke-width="0.5" stroke-miterlimit="10"/>
<path d="M72.907 234.519C72.907 234.519 78.3824 238.919 95.1997 243.052C112.016 247.184 121.087 246.759 121.087 246.759" stroke="#FFE3D9" stroke-width="0.5" stroke-miterlimit="10"/>
<path d="M72.4301 236.337C72.4301 236.337 81.2797 243.245 97.96 248.463C114.64 253.68 123.012 252.402 123.012 252.402" stroke="#FFE3D9" stroke-width="0.5" stroke-miterlimit="10"/>
<path d="M72.4301 263.689C72.4301 263.689 74.2664 257.976 74.1684 254.018" stroke="#FFE3D9" stroke-width="0.5" stroke-miterlimit="10"/>
<path d="M83.9121 255.277C83.9121 255.277 84.35 264.047 86.5369 266.476" stroke="#FFE3D9" stroke-width="0.5" stroke-miterlimit="10"/>
<path d="M101.956 257.643C101.956 257.643 104.498 268.906 108.148 271.994" stroke="#FFE3D9" stroke-width="0.5" stroke-miterlimit="10"/>
<path d="M119.671 264.164C119.671 264.164 121.755 273.2 124.978 275.258" stroke="#FFE3D9" stroke-width="0.5" stroke-miterlimit="10"/>
<path d="M76.0392 268.267C76.0392 268.267 78.4451 278.808 82.163 283.706" stroke="#EACBC1" stroke-miterlimit="10" stroke-linecap="round" stroke-linejoin="round"/>
<path d="M91.3548 275.413C91.3548 275.413 91.9809 285.713 93.469 288.542" stroke="#EACBC1" stroke-miterlimit="10" stroke-linecap="round" stroke-linejoin="round"/>
<path d="M96.925 272.516C96.925 272.516 99.223 293.469 102.83 299.783" stroke="#EACBC1" stroke-miterlimit="10" stroke-linecap="round" stroke-linejoin="round"/>
<path d="M117.046 302.445C117.046 302.445 109.31 286.94 108.148 276.752" stroke="#EACBC1" stroke-miterlimit="10" stroke-linecap="round" stroke-linejoin="round"/>
<path d="M125.362 320.013C125.362 320.013 129.84 314.157 128.091 305C126.341 295.843 121.967 293.075 121.858 287.645" stroke="#EACBC1" stroke-miterlimit="10" stroke-linecap="round" stroke-linejoin="round"/>
<path d="M139.464 326.082C139.464 326.082 139.683 315.541 136.73 312.773C133.777 310.005 136.293 319.801 133.449 322.143" stroke="#EACBC1" stroke-miterlimit="10" stroke-linecap="round" stroke-linejoin="round"/>
<path d="M151.498 327.573C151.498 327.573 149.196 340.775 146.353 345.141C143.51 349.506 144.494 353.019 148.321 352.914C152.148 352.807 153.351 347.734 158.928 347.129" stroke="#EACBC1" stroke-miterlimit="10" stroke-linecap="round" stroke-linejoin="round"/>
<path d="M164.396 355.043C164.396 355.043 167.021 350.464 169.754 350.571C172.488 350.678 173.582 354.404 173.582 354.404" stroke="#EACBC1" stroke-miterlimit="10" stroke-linecap="round" stroke-linejoin="round"/>
<path d="M81.2881 328.957C81.2881 328.957 83.0379 330.129 86.2085 330.341C89.3799 330.554 91.354 328.399 91.354 328.399" stroke="#DB927A" stroke-miterlimit="10" stroke-linecap="round"/>
<defs>
<linearGradient id="paint0_linear_1_593" x1="100.877" y1="171.144" x2="89.7754" y2="589.797" gradientUnits="userSpaceOnUse">
<stop stop-color="white"/>
<stop offset="1" stop-color="white" stop-opacity="0"/>
</linearGradient>
</defs>
</svg>
